<svg width="41" height="42" viewBox="0 0 41 42" fill="none" xmlns="http://www.w3.org/2000/svg">
<path fill-rule="evenodd" clip-rule="evenodd" d="M14.0084 5.43765C18.3828 3.31672 22.1774 -1.50572 27.1723 0.869961C32.2345 3.27773 33.5817 10.21 35.7988 15.8018C38.2389 21.9559 42.4591 28.5139 40.2591 33.8758C37.8891 39.6518 31.5354 42.2185 25.3438 41.2826C19.8278 40.4489 16.2153 34.2896 11.9807 29.6014C7.42846 24.5615 -0.0163696 20.132 0.515445 13.7945C1.04493 7.48479 8.99645 7.86771 14.0084 5.43765Z" fill="#373541"/>
<path fill-rule="evenodd" clip-rule="evenodd" d="M14.0084 5.43765C18.3828 3.31672 22.1774 -1.50572 27.1723 0.869961C32.2345 3.27773 33.5817 10.21 35.7988 15.8018C38.2389 21.9559 42.4591 28.5139 40.2591 33.8758C37.8891 39.6518 31.5354 42.2185 25.3438 41.2826C19.8278 40.4489 16.2153 34.2896 11.9807 29.6014C7.42846 24.5615 -0.0163696 20.132 0.515445 13.7945C1.04493 7.48479 8.99645 7.86771 14.0084 5.43765Z" fill="black" fill-opacity="0.2"/>
</svg>
